<svg xmlns="http://www.w3.org/2000/svg" viewBox="20 181.9220858856769 534.9941594656026 211.15582822864621"><rect height="100%" width="100%" x="20" y="181.9220858856769" fill="rgba(238, 234, 229, 1)"/> <g transform="rotate(0 117.76650667556166 287.5)"><svg xmlns="http://www.w3.org/2000/svg" xmlns:xlink="http://www.w3.org/1999/xlink" version="1.1" id="Layer_1" x="90" y="251.9220858856769" viewBox="143.51495361328125 240.6178741455078 554.8582763671875 710.9536743164062" enable-background="new 0 0 841.89 1190.55" xml:space="preserve" height="71.15582822864624" width="55.53301335112331" preserveAspectRatio="xMinYMin" style="overflow: visible;"><path d="M669.807,601.707c7,4.494,14.492,1.446,16.649-6.768c2.157-8.216,5.186-21.87,6.724-30.34   c1.544-8.47,3.387-22.432,4.102-31.026c0.715-8.595,1.198-23.206,1.071-32.466c-0.126-9.262-2.172-24.166-4.545-33.12   c-2.374-8.953-6.121-23.619-8.331-32.591c-2.206-8.973-7.392-23.08-11.516-31.349c-4.131-8.269-11.301-21.559-15.936-29.533   c-4.638-7.973-12.858-20.649-18.274-28.167c-5.409-7.518-15.355-18.869-22.099-25.224c-6.747-6.354-18.199-16.245-25.453-21.977   c-7.259-5.732-19.593-14.486-27.411-19.451c-7.82-4.964-21.079-12.292-29.465-16.285c-8.385-3.991-22.679-8.834-31.758-10.763   c-9.079-1.929-23.899-4.942-32.93-6.696c-9.034-1.754-23.943-3.583-33.132-4.067c-9.189-0.482-24.298-1.043-33.571-1.245   c-9.272-0.202-24.32,1.069-33.438,2.824c-9.117,1.756-23.689,5.806-32.383,9s-22.62,9.035-30.946,12.979   c-8.326,3.943-21.736,10.838-29.802,15.322c-8.064,4.485-20.835,12.569-28.379,17.966c-7.543,5.396-19.042,15.231-25.55,21.854   c-6.509,6.624-16.158,18.267-21.443,25.876c-5.286,7.61-13.648,20.215-18.585,28.013c-4.938,7.799-12.012,21.097-15.722,29.551   c-3.711,8.454-9.395,22.481-12.631,31.17c-3.238,8.688-7.161,23.285-8.722,32.437c-1.562,9.151-2.828,24.215-2.816,33.476   s0.024,25.619,0.027,36.354c0.004,10.734,2.645,27.833,5.866,37.997s15.142,23.01,26.488,28.552   c11.345,5.536,27.333,12.018,35.529,14.397c8.196,2.379,21.852,4.62,30.346,4.972c8.495,0.354,18.565-0.524,22.379-1.953   c3.815-1.429,9.105-2.979,11.755-3.439c2.65-0.464,6.112-1.602,7.694-2.529c1.58-0.928,0.52,0.991-2.356,4.261   c-2.875,3.27-8.195,7.86-11.821,10.208c-3.627,2.348-1.201,1.835,5.391-1.138c6.592-2.97,18.754-9.644,27.027-14.829   c8.271-5.185,15.01-8.466,14.974-7.287c-0.036,1.175-3.875,6.913-8.534,12.743c-4.656,5.836-3.971,7.383,1.522,3.439   c5.493-3.946,12.662-9.935,15.931-13.309c3.267-3.373,10.335-8.803,15.708-12.063c5.371-3.262,14.839-9.808,21.039-14.548   c6.202-4.738,9-3.423,6.219,2.921c-2.781,6.346-9.859,16.847-15.728,23.34c-5.87,6.489-2.758,10.542,6.915,9.004   s13.314,2.512,8.093,8.999c-5.223,6.493-13.044,13.947-17.381,16.571c-4.338,2.625-9.768,6.6-12.067,8.829   c-2.3,2.235,2.379,3.716,10.399,3.298c8.018-0.417,12.476,1.671,9.906,4.646c-2.568,2.973-8.568,7.934-13.333,11.021   c-4.764,3.088-14.752,8.255-22.196,11.484s-13.874,5.102-14.29,4.156c-0.417-0.944,0.208-3.537,1.387-5.767   s-2.127-2.027-7.347,0.446c-5.218,2.475-14.118,2.838-19.775,0.807c-5.659-2.03-11.793-2.93-13.633-1.996   c-1.839,0.937-4.746,0.582-6.458-0.783c-1.712-1.362-1.172-7.386,1.201-13.383c2.372-6,0.575-8.005-3.995-4.453   c-4.568,3.549-11.503,7.852-15.411,9.557c-3.906,1.712-6.235,0.266-5.176-3.208c1.059-3.472,2.859-9.702,4-13.845   c1.141-4.145,0.03-5.213-2.469-2.373s-7.145,6.709-10.327,8.596c-3.182,1.884-6.418,4.468-7.191,5.74   c-0.775,1.273-2.49,3.287-3.811,4.474c-1.322,1.187-7.373,2.074-13.446,1.971c-6.072-0.106-11.575,2.022-12.23,4.724   c-0.654,2.702,0.335,7.409,2.198,10.457c1.862,3.047,7.298,10.651,12.078,16.902c4.782,6.254,13.128,17.508,18.548,25.009   c5.419,7.507,14.698,19.467,20.619,26.588c5.921,7.114,15.751,19.126,21.846,26.685c6.094,7.564,16.75,19.317,23.681,26.121   s18.876,17.242,26.544,23.199c7.669,5.96,20.321,15.532,28.114,21.273c7.794,5.74,20.632,15.016,28.528,20.609   c7.896,5.598,21.091,14.547,29.323,19.891c8.231,5.344,21.371,5.815,29.2,1.046c7.829-4.765,20.155-13.104,27.388-18.528   c7.236-5.427,19.023-14.333,26.202-19.789c7.175-5.461,18.798-14.553,25.832-20.21s18.517-14.99,25.519-20.745   c7.003-5.756,17.453-16.183,23.226-23.174s15.693-17.989,22.042-24.447c6.352-6.452,15.791-17.808,20.977-25.233   c5.182-7.42,13.844-19.427,19.241-26.68c5.404-7.25,13.44-19.631,17.862-27.509c4.422-7.881,2.417-18.579-4.462-23.776   c-6.873-5.196-18.279-13.803-25.349-19.132c-7.068-5.329-18-13.879-24.294-19c-6.291-5.122-16.638-13.461-22.993-18.533   c-6.354-5.07-14.373-12.836-17.821-17.256c-3.448-4.418-9.388-7.145-13.201-6.059c-3.814,1.086-11.113,7.574-16.218,14.42   c-5.104,6.845-13.647,15.751-18.979,19.795c-5.332,4.039-9.071,8.792-8.305,10.555c0.763,1.766,1.175,4.966,0.91,7.114   c-0.265,2.149,0.216,8.256,1.065,13.567c0.853,5.314,2.017,15.048,2.587,21.633s-2.93,5.554-7.777-2.287   c-4.851-7.841-10.874-17.277-13.383-20.97c-2.512-3.693-6.731-11.886-9.379-18.205c-2.65-6.317-5.15-12.438-5.554-13.597   c-0.403-1.163-3.255-6.383-6.334-11.603c-3.08-5.217-7.436-11.232-9.676-13.367c-2.244-2.133-4.413-6.321-4.825-9.307   c-0.412-2.987-4.301-9.277-8.647-13.979c-4.347-4.702-12.468-15.016-18.051-22.92c-5.581-7.904-12.886-16.82-16.232-19.813   c-3.347-2.991-11.781,0.089-18.744,6.847c-6.963,6.759-18.45,17.521-25.527,23.916c-7.077,6.395-19.501,14.349-27.608,17.678   c-8.107,3.329-20.767,7.808-28.134,9.957c-7.367,2.147-16.886,4.59-21.153,5.428c-4.269,0.838-10.972,1.687-14.896,1.885   s-3.624-2.852,0.669-6.781c4.295-3.927,11.24-10.715,15.434-15.084c4.194-4.368,9.115-10.203,10.936-12.963   c1.82-2.763,2.519-8.695,1.549-13.185c-0.969-4.488-2.788-12.222-4.044-17.185c-1.256-4.963-0.739-16.943,1.149-26.622   c1.888-9.68,6.484-24.979,10.216-33.999c3.73-9.021,11.739-22.644,17.797-30.276c6.058-7.632,17.172-18.983,24.697-25.225   c7.525-6.242,21.176-14.149,30.336-17.571c9.159-3.422,24.545-7.49,34.192-9.038c9.646-1.549,25.583-2.127,35.417-1.285   c9.834,0.843,25.15,5.034,34.033,9.314c8.884,4.28,22.863,12.283,31.067,17.783c8.2,5.502,19.42,16.711,24.928,24.911   c5.505,8.198,13.417,22.202,17.577,31.118c4.165,8.915,8.132,24.232,8.817,34.036c0.686,9.806,1.633,18.528,2.108,19.382   s6.075,6.061,12.452,11.57c6.372,5.507,17.261,13.973,24.193,18.811c6.934,4.838,18.023,13.125,24.644,18.416   c6.625,5.29,18.015,13.134,25.313,17.431C651.106,590.024,662.807,597.214,669.807,601.707z M518.683,641.298   c1.593-5.387,4.263-11.635,5.934-13.885c1.668-2.252,4.929-5.916,7.242-8.143c2.315-2.228,3.966-1.133,3.67,2.431   c-0.294,3.563,0.962,8.469,2.794,10.897c1.832,2.428,5.124,6.098,7.316,8.154c2.189,2.057,2.518,6.746,0.731,10.425   c-1.789,3.676-1.161,5.988,1.395,5.139c2.552-0.847,8.105-0.44,12.334,0.904c4.234,1.343,4.983,8.129,1.668,15.083   c-3.315,6.953-8.287,16.728-11.041,21.719c-2.754,4.989-6.476,9.621-8.262,10.284c-1.785,0.668-3.183-1.913-3.099-5.732   c0.083-3.82-1.7-6.787-3.958-6.591c-2.265,0.196-5.848,3.797-7.968,8.008c-2.126,4.211-5.542,7.118-7.602,6.461   c-2.06-0.656-2.503-4.813-0.985-9.243c1.519-4.425,3.021-11.58,3.351-15.901c0.325-4.317,0.138-10.706-0.415-14.194   c-0.56-3.492-2.135-8.521-3.509-11.183C516.908,653.269,517.087,646.687,518.683,641.298z M377.106,706.622   c4.727,6.406,12.958,15.826,18.292,20.93c5.334,5.104,16.276,9.011,24.314,8.683c8.038-0.329,19.295,0.489,25.01,1.814   c5.719,1.328,5.41-0.764-0.68-4.646c-6.089-3.883-14.051-8.97-17.687-11.306c-3.635-2.334-7.771-7.207-9.19-10.825   c-1.418-3.624-5.99-14.438-10.158-24.035s-3.334-14.057,1.854-9.909c5.187,4.148,14.816,11.747,21.395,16.892   c6.585,5.142,10.394,2.863,8.469-5.07c-1.924-7.927-5.767-19.844-8.538-26.483c-2.771-6.637-6.353-16.805-7.954-22.595   c-1.603-5.796-0.805-7.04,1.774-2.771c2.579,4.272,8.433,9.797,13.007,12.277c4.574,2.483,11.044,8.187,14.374,12.674   c3.333,4.494,11.937,13.591,19.121,20.222c7.181,6.634,9.301,12.502,4.71,13.043c-4.592,0.536-9.647,3.394-11.231,6.343   c-1.587,2.95,2.024,9.656,8.025,14.901c6.003,5.245,13.953,10.413,17.663,11.487c3.716,1.074,9.339,3.771,12.496,5.994   c3.153,2.225,11.225,4.148,17.934,4.275s6.77,3.079,0.139,6.567c-6.637,3.485-16.852,8.682-22.699,11.551   c-5.85,2.866-9.01,5.986-7.022,6.937c1.987,0.944,7.144,3.278,11.456,5.179c4.313,1.907,11.83,4.943,16.698,6.752   c4.874,1.807,7.604,4.16,6.072,5.226c-1.532,1.071-5.818,2.405-9.523,2.967c-3.71,0.564-9.707-0.219-13.331-1.733   c-3.623-1.521-9.658-2.786-13.411-2.817c-3.751-0.029-9.275-1.392-12.28-3.024c-3.004-1.637-5.513-3.336-5.579-3.779   c-0.063-0.441-2.671-2.448-5.79-4.459c-3.117-2.011-8.676-3.688-12.352-3.733c-3.679-0.04-11.972-3.117-18.43-6.827   c-6.458-3.716-16.608-4.211-22.559-1.101c-5.95,3.111-14.998,7.718-20.106,10.238c-5.107,2.522-5.803,0.956-1.545-3.48   c4.257-4.436,4.383-6.78,0.276-5.214c-4.106,1.57-9.265,3.924-11.466,5.226c-2.202,1.302-5.539,1.936-7.417,1.406   c-1.876-0.53-7.393,0.801-12.256,2.958s-14.633,5.576-21.709,7.596c-7.076,2.022-8.372,1.198-2.879-1.826   s14.523-9.264,20.07-13.861c5.546-4.603,4.616-7.498-2.067-6.435c-6.683,1.06-16.343,2.771-21.469,3.802   c-5.125,1.025-15.111,1.7-22.194,1.486c-7.083-0.207-15.735-0.553-19.226-0.76c-3.491-0.208-8.949-0.617-12.126-0.911   c-3.178-0.29-1.969-1.538,2.688-2.765c4.658-1.233,12.334-4.667,17.061-7.64c4.727-2.967,13.42-8.082,19.32-11.369   c5.898-3.287,7.22-5.303,2.938-4.491c-4.283,0.818-8.216,0.242-8.741-1.278c-0.524-1.516,5.193-4.949,12.705-7.628   c7.512-2.679,16.806-7.686,20.652-11.13c3.846-3.442,8.709-8.711,10.808-11.704c2.099-2.993,6.041-5.001,8.76-4.456   C366.288,694.523,372.38,700.21,377.106,706.622z" style="fill: #BF0A30; fill-opacity: 1;"></path><path d="M362.418,528.431c0.388-0.305,4.233-3.938,8.544-8.071c4.309-4.132,11.912-10.086,16.894-13.23   c4.982-3.143,12.068-2.65,15.747,1.095s10.016,10.457,14.083,14.916c4.067,4.458,9.379,10.731,11.802,13.942   c2.422,3.21,6.694,8.058,9.491,10.773c2.794,2.716,5.686,8.191,6.424,12.166c0.737,3.975,2.915,9.537,4.839,12.36   c1.924,2.823,6.021,6.303,9.097,7.734c3.082,1.432,9.321-1.607,13.873-6.752c4.551-5.145,11.13-14.289,14.621-20.321   c3.497-6.031,7.559-16.609,9.027-23.508c1.473-6.898,1.371-19.341-0.23-27.648c-1.596-8.308-6.607-21.012-11.142-28.231   c-4.528-7.217-14.348-16.331-21.82-20.25c-7.472-3.92-20.175-8.984-28.229-11.254c-8.055-2.268-21.253-2.309-29.329-0.089   c-8.077,2.219-20.358,7.707-27.29,12.196c-6.933,4.488-16.315,13.816-20.849,20.731c-4.533,6.913-9.706,19.193-11.498,27.287   c-1.792,8.093-1.936,20.812-0.321,28.262c1.613,7.451,5.774,10.151,9.247,5.999C358.871,532.385,362.029,528.738,362.418,528.431z" style="fill: #FFD700; fill-opacity: 1;"></path><path d="M470.394,939.023c8.63,2.426,8.606,6.101-0.058,8.163c-8.662,2.068-23.353,3.912-32.648,4.103   c-9.292,0.187-24.509,0.313-33.814,0.276c-9.306-0.035-24.014-1.878-32.684-4.097c-8.669-2.218-8.666-5.81,0.009-7.979   c8.673-2.172,23.379-4.137,32.682-4.373c9.303-0.23,24.541-0.44,33.865-0.467C447.066,934.628,461.758,936.595,470.394,939.023z" style="fill: #002868; fill-opacity: 1;"></path></svg></g> <g transform="rotate(0 322.3791692312276 287.5016250027636)"><svg y="276.82662576570306" viewBox="1.6700000762939453 19.290000915527344 325.22998046875 21.349998474121094" x="159.76417899685262" height="21.349998474121094" width="325.22998046875" xmlns="http://www.w3.org/2000/svg" style="overflow: visible;"><g fill="#002868" fill-opacity="1" style=""><path d="M9.31 40.62L9.31 40.62Q5.49 40.62 3.58 38.48Q1.67 36.34 1.67 32.39L1.67 32.39L1.67 27.52Q1.67 23.57 3.57 21.44Q5.47 19.30 9.27 19.30L9.27 19.30Q10.50 19.30 11.50 19.53Q12.51 19.75 13.30 20.11Q14.09 20.46 14.64 20.85L14.64 20.85L14.86 23.33Q13.91 22.65 12.63 22.15Q11.35 21.64 9.63 21.64L9.63 21.64Q7.04 21.64 5.72 23.18Q4.40 24.71 4.40 27.55L4.40 27.55L4.40 32.30Q4.40 35.11 5.73 36.67Q7.07 38.22 9.72 38.22L9.72 38.22Q11.43 38.22 12.74 37.72Q14.06 37.22 15.02 36.50L15.02 36.50L14.80 39.04Q14.25 39.43 13.44 39.80Q12.64 40.17 11.60 40.40Q10.56 40.62 9.31 40.62ZM21.45 19.67L21.45 40.25L18.77 40.25L18.77 19.67L21.45 19.67ZM20.21 40.25L20.21 37.98L31.06 37.98L31.06 40.25L20.21 40.25ZM41.65 40.64L41.65 40.64Q37.76 40.64 35.73 38.49Q33.70 36.34 33.70 32.33L33.70 32.33L33.70 27.58Q33.70 23.59 35.73 21.44Q37.76 19.29 41.65 19.29L41.65 19.29Q45.55 19.29 47.58 21.44Q49.60 23.59 49.60 27.58L49.60 27.58L49.60 32.33Q49.60 36.34 47.58 38.49Q45.55 40.64 41.65 40.64ZM41.65 38.40L41.65 38.40Q44.26 38.40 45.58 36.85Q46.90 35.29 46.90 32.44L46.90 32.44L46.90 27.47Q46.90 24.62 45.58 23.07Q44.26 21.53 41.65 21.53L41.65 21.53Q39.06 21.53 37.74 23.07Q36.42 24.62 36.42 27.47L36.42 27.47L36.42 32.44Q36.42 35.29 37.74 36.85Q39.06 38.40 41.65 38.40ZM61.12 40.64L61.12 40.64Q57.25 40.64 55.41 38.65Q53.57 36.66 53.57 32.86L53.57 32.86L53.57 19.67L56.24 19.67L56.24 32.92Q56.24 35.57 57.40 36.96Q58.56 38.35 61.12 38.35L61.12 38.35Q63.69 38.35 64.84 36.96Q65.99 35.57 65.99 32.92L65.99 32.92L65.99 19.67L68.67 19.67L68.67 32.86Q68.67 36.66 66.83 38.65Q65.00 40.64 61.12 40.64ZM80.26 40.25L75.17 40.25L75.17 38.00L80.16 38.00Q82.90 38.00 84.28 36.51Q85.65 35.02 85.65 32.25L85.65 32.25L85.65 27.66Q85.65 24.87 84.28 23.39Q82.90 21.91 80.16 21.91L80.16 21.91L75.16 21.91L75.16 19.67L80.26 19.67Q84.25 19.67 86.30 21.73Q88.34 23.78 88.34 27.64L88.34 27.64L88.34 32.26Q88.34 36.11 86.30 38.18Q84.25 40.25 80.26 40.25L80.26 40.25ZM76.01 40.25L73.37 40.25L73.37 19.67L76.01 19.67L76.01 40.25ZM105.04 40.62L105.04 40.62Q101.22 40.62 99.31 38.48Q97.41 36.34 97.41 32.39L97.41 32.39L97.41 27.52Q97.41 23.57 99.31 21.44Q101.21 19.30 105.01 19.30L105.01 19.30Q106.23 19.30 107.24 19.53Q108.24 19.75 109.03 20.11Q109.82 20.46 110.37 20.85L110.37 20.85L110.59 23.33Q109.64 22.65 108.36 22.15Q107.08 21.64 105.36 21.64L105.36 21.64Q102.77 21.64 101.45 23.18Q100.13 24.71 100.13 27.55L100.13 27.55L100.13 32.30Q100.13 35.11 101.46 36.67Q102.80 38.22 105.46 38.22L105.46 38.22Q107.16 38.22 108.48 37.72Q109.79 37.22 110.75 36.50L110.75 36.50L110.53 39.04Q109.98 39.43 109.18 39.80Q108.37 40.17 107.33 40.40Q106.29 40.62 105.04 40.62ZM117.21 19.67L117.21 40.25L114.54 40.25L114.54 19.67L117.21 19.67ZM129.56 40.25L126.89 40.25L126.89 20.11L129.56 20.11L129.56 40.25ZM135.72 21.91L120.72 21.91L120.72 19.67L135.72 19.67L135.72 21.91ZM146.75 34.07L144.45 34.07L137.38 19.67L140.20 19.67L143.98 27.55L145.50 30.96L145.71 30.96L147.22 27.55L150.99 19.67L153.82 19.67L146.75 34.07ZM146.91 40.25L144.29 40.25L144.29 31.57L146.91 31.57L146.91 40.25ZM168.92 40.64L168.92 40.64Q166.59 40.64 165.01 39.70Q163.43 38.75 162.64 36.95Q161.84 35.15 161.84 32.59L161.84 32.59L161.84 27.72Q161.84 23.67 163.92 21.49Q166.01 19.30 170.05 19.30L170.05 19.30Q171.50 19.30 172.68 19.54Q173.87 19.77 174.78 20.15Q175.70 20.53 176.36 20.95L176.36 20.95L176.60 23.36Q175.49 22.65 173.99 22.12Q172.48 21.59 170.50 21.59L170.50 21.59Q167.51 21.59 166.03 23.18Q164.56 24.78 164.56 27.77L164.56 27.77L164.56 32.57Q164.56 35.34 165.86 36.85Q167.15 38.35 169.74 38.35L169.74 38.35Q171.06 38.35 172.01 37.90Q172.95 37.45 173.55 36.71Q174.16 35.97 174.43 35.08L174.43 35.08L174.43 30.01L174.86 30.96L170.02 30.96L170.02 28.74L177.04 28.74L177.04 36.87L174.41 36.85Q174.16 37.85 173.53 38.72Q172.90 39.59 171.77 40.11Q170.65 40.64 168.92 40.64ZM174.43 40.25L174.54 36.00L177.04 36.00L177.04 40.25L174.43 40.25ZM184.23 40.25L181.59 40.25L181.59 19.67L184.23 19.67L184.23 40.25ZM194.43 40.25L182.38 40.25L182.38 38.01L194.43 38.01L194.43 40.25ZM194.09 30.86L183.11 30.86L183.11 28.64L194.09 28.64L194.09 30.86ZM194.33 21.91L182.37 21.91L182.37 19.67L194.33 19.67L194.33 21.91ZM205.63 40.64L205.63 40.64Q201.74 40.64 199.71 38.49Q197.68 36.34 197.68 32.33L197.68 32.33L197.68 27.58Q197.68 23.59 199.71 21.44Q201.74 19.29 205.63 19.29L205.63 19.29Q209.53 19.29 211.56 21.44Q213.59 23.59 213.59 27.58L213.59 27.58L213.59 32.33Q213.59 36.34 211.56 38.49Q209.53 40.64 205.63 40.64ZM205.63 38.40L205.63 38.40Q208.24 38.40 209.56 36.85Q210.88 35.29 210.88 32.44L210.88 32.44L210.88 27.47Q210.88 24.62 209.56 23.07Q208.24 21.53 205.63 21.53L205.63 21.53Q203.04 21.53 201.72 23.07Q200.40 24.62 200.40 27.47L200.40 27.47L200.40 32.44Q200.40 35.29 201.72 36.85Q203.04 38.40 205.63 38.40ZM223.44 40.62L223.44 40.62Q221.96 40.62 220.73 40.38Q219.49 40.14 218.53 39.78Q217.56 39.43 216.92 39.08L216.92 39.08L216.64 36.42Q217.88 37.16 219.57 37.71Q221.25 38.27 223.23 38.27L223.23 38.27Q225.61 38.27 226.76 37.42Q227.90 36.58 227.90 34.89L227.90 34.89L227.90 34.63Q227.90 33.52 227.45 32.81Q227.00 32.10 225.93 31.62Q224.86 31.14 223.02 30.72L223.02 30.72Q220.70 30.17 219.31 29.42Q217.92 28.67 217.30 27.55Q216.68 26.42 216.68 24.75L216.68 24.75L216.68 24.60Q216.68 22.07 218.34 20.70Q219.99 19.32 223.36 19.32L223.36 19.32Q225.56 19.32 227.12 19.77Q228.67 20.22 229.65 20.77L229.65 20.77L229.90 23.22Q228.75 22.54 227.23 22.07Q225.71 21.59 223.74 21.59L223.74 21.59Q222.18 21.59 221.22 21.96Q220.25 22.33 219.82 23.02Q219.38 23.72 219.38 24.70L219.38 24.70L219.38 24.76Q219.38 25.76 219.81 26.47Q220.23 27.18 221.31 27.69Q222.38 28.21 224.36 28.69L224.36 28.69Q226.63 29.22 228.00 29.91Q229.36 30.61 229.98 31.72Q230.60 32.83 230.60 34.62L230.60 34.62L230.60 34.95Q230.60 37.74 228.81 39.18Q227.01 40.62 223.44 40.62ZM242.13 33.41L236.22 33.41L236.22 31.19L242.07 31.19Q244.18 31.19 245.13 30.13Q246.08 29.08 246.08 27.23L246.08 27.23L246.08 25.82Q246.08 23.94 245.13 22.91Q244.19 21.88 242.10 21.88L242.10 21.88L236.21 21.88L236.21 19.67L242.15 19.67Q245.59 19.67 247.16 21.29Q248.73 22.91 248.73 25.74L248.73 25.74L248.73 27.29Q248.73 30.16 247.15 31.78Q245.56 33.41 242.13 33.41L242.13 33.41ZM237.12 40.25L234.48 40.25L234.48 19.67L237.11 19.67L237.11 31.85L237.12 33.04L237.12 40.25ZM253.59 40.25L250.89 40.25L257.33 19.67L261.55 19.67L268.00 40.25L265.30 40.25L259.65 21.48L259.25 21.48L253.59 40.25ZM264.12 34.18L254.75 34.18L254.75 31.96L264.12 31.96L264.12 34.18ZM278.68 40.25L276.01 40.25L276.01 20.11L278.68 20.11L278.68 40.25ZM284.85 21.91L269.84 21.91L269.84 19.67L284.85 19.67L284.85 21.91ZM291.03 19.67L291.03 40.25L288.36 40.25L288.36 19.67L291.03 19.67ZM296.98 40.25L294.28 40.25L300.72 19.67L304.94 19.67L311.39 40.25L308.69 40.25L303.04 21.48L302.64 21.48L296.98 40.25ZM307.51 34.18L298.14 34.18L298.14 31.96L307.51 31.96L307.51 34.18ZM317.29 19.67L317.29 40.25L314.61 40.25L314.61 19.67L317.29 19.67ZM316.05 40.25L316.05 37.98L326.90 37.98L326.90 40.25L316.05 40.25Z" transform="translate(0, 0)"></path></g></svg></g></svg>