
            <svg xmlns="http://www.w3.org/2000/svg">
                <filter id="grayscale">
                    <feColorMatrix type="saturate" values="0"/>
                </filter>
                <g filter="url(#grayscale)">
                    <svg xmlns="http://www.w3.org/2000/svg" viewBox="45.41499328613281 50 484.1700134277344 474.9995807051046"> <g transform="rotate(0 287.4999897714414 261.36420647517747)"><svg xmlns="http://www.w3.org/2000/svg" xmlns:xlink="http://www.w3.org/1999/xlink" version="1.1" id="Layer_1" x="177.1733930472599" y="120" viewBox="143.51495361328125 240.6178741455078 554.8582763671875 710.9536743164062" enable-background="new 0 0 841.89 1190.55" xml:space="preserve" height="282.72841295035494" width="220.65319344836297" preserveAspectRatio="xMinYMin" style="overflow: visible;"><path d="M669.807,601.707c7,4.494,14.492,1.446,16.649-6.768c2.157-8.216,5.186-21.87,6.724-30.34   c1.544-8.47,3.387-22.432,4.102-31.026c0.715-8.595,1.198-23.206,1.071-32.466c-0.126-9.262-2.172-24.166-4.545-33.12   c-2.374-8.953-6.121-23.619-8.331-32.591c-2.206-8.973-7.392-23.08-11.516-31.349c-4.131-8.269-11.301-21.559-15.936-29.533   c-4.638-7.973-12.858-20.649-18.274-28.167c-5.409-7.518-15.355-18.869-22.099-25.224c-6.747-6.354-18.199-16.245-25.453-21.977   c-7.259-5.732-19.593-14.486-27.411-19.451c-7.82-4.964-21.079-12.292-29.465-16.285c-8.385-3.991-22.679-8.834-31.758-10.763   c-9.079-1.929-23.899-4.942-32.93-6.696c-9.034-1.754-23.943-3.583-33.132-4.067c-9.189-0.482-24.298-1.043-33.571-1.245   c-9.272-0.202-24.32,1.069-33.438,2.824c-9.117,1.756-23.689,5.806-32.383,9s-22.62,9.035-30.946,12.979   c-8.326,3.943-21.736,10.838-29.802,15.322c-8.064,4.485-20.835,12.569-28.379,17.966c-7.543,5.396-19.042,15.231-25.55,21.854   c-6.509,6.624-16.158,18.267-21.443,25.876c-5.286,7.61-13.648,20.215-18.585,28.013c-4.938,7.799-12.012,21.097-15.722,29.551   c-3.711,8.454-9.395,22.481-12.631,31.17c-3.238,8.688-7.161,23.285-8.722,32.437c-1.562,9.151-2.828,24.215-2.816,33.476   s0.024,25.619,0.027,36.354c0.004,10.734,2.645,27.833,5.866,37.997s15.142,23.01,26.488,28.552   c11.345,5.536,27.333,12.018,35.529,14.397c8.196,2.379,21.852,4.62,30.346,4.972c8.495,0.354,18.565-0.524,22.379-1.953   c3.815-1.429,9.105-2.979,11.755-3.439c2.65-0.464,6.112-1.602,7.694-2.529c1.58-0.928,0.52,0.991-2.356,4.261   c-2.875,3.27-8.195,7.86-11.821,10.208c-3.627,2.348-1.201,1.835,5.391-1.138c6.592-2.97,18.754-9.644,27.027-14.829   c8.271-5.185,15.01-8.466,14.974-7.287c-0.036,1.175-3.875,6.913-8.534,12.743c-4.656,5.836-3.971,7.383,1.522,3.439   c5.493-3.946,12.662-9.935,15.931-13.309c3.267-3.373,10.335-8.803,15.708-12.063c5.371-3.262,14.839-9.808,21.039-14.548   c6.202-4.738,9-3.423,6.219,2.921c-2.781,6.346-9.859,16.847-15.728,23.34c-5.87,6.489-2.758,10.542,6.915,9.004   s13.314,2.512,8.093,8.999c-5.223,6.493-13.044,13.947-17.381,16.571c-4.338,2.625-9.768,6.6-12.067,8.829   c-2.3,2.235,2.379,3.716,10.399,3.298c8.018-0.417,12.476,1.671,9.906,4.646c-2.568,2.973-8.568,7.934-13.333,11.021   c-4.764,3.088-14.752,8.255-22.196,11.484s-13.874,5.102-14.29,4.156c-0.417-0.944,0.208-3.537,1.387-5.767   s-2.127-2.027-7.347,0.446c-5.218,2.475-14.118,2.838-19.775,0.807c-5.659-2.03-11.793-2.93-13.633-1.996   c-1.839,0.937-4.746,0.582-6.458-0.783c-1.712-1.362-1.172-7.386,1.201-13.383c2.372-6,0.575-8.005-3.995-4.453   c-4.568,3.549-11.503,7.852-15.411,9.557c-3.906,1.712-6.235,0.266-5.176-3.208c1.059-3.472,2.859-9.702,4-13.845   c1.141-4.145,0.03-5.213-2.469-2.373s-7.145,6.709-10.327,8.596c-3.182,1.884-6.418,4.468-7.191,5.74   c-0.775,1.273-2.49,3.287-3.811,4.474c-1.322,1.187-7.373,2.074-13.446,1.971c-6.072-0.106-11.575,2.022-12.23,4.724   c-0.654,2.702,0.335,7.409,2.198,10.457c1.862,3.047,7.298,10.651,12.078,16.902c4.782,6.254,13.128,17.508,18.548,25.009   c5.419,7.507,14.698,19.467,20.619,26.588c5.921,7.114,15.751,19.126,21.846,26.685c6.094,7.564,16.75,19.317,23.681,26.121   s18.876,17.242,26.544,23.199c7.669,5.96,20.321,15.532,28.114,21.273c7.794,5.74,20.632,15.016,28.528,20.609   c7.896,5.598,21.091,14.547,29.323,19.891c8.231,5.344,21.371,5.815,29.2,1.046c7.829-4.765,20.155-13.104,27.388-18.528   c7.236-5.427,19.023-14.333,26.202-19.789c7.175-5.461,18.798-14.553,25.832-20.21s18.517-14.99,25.519-20.745   c7.003-5.756,17.453-16.183,23.226-23.174s15.693-17.989,22.042-24.447c6.352-6.452,15.791-17.808,20.977-25.233   c5.182-7.42,13.844-19.427,19.241-26.68c5.404-7.25,13.44-19.631,17.862-27.509c4.422-7.881,2.417-18.579-4.462-23.776   c-6.873-5.196-18.279-13.803-25.349-19.132c-7.068-5.329-18-13.879-24.294-19c-6.291-5.122-16.638-13.461-22.993-18.533   c-6.354-5.07-14.373-12.836-17.821-17.256c-3.448-4.418-9.388-7.145-13.201-6.059c-3.814,1.086-11.113,7.574-16.218,14.42   c-5.104,6.845-13.647,15.751-18.979,19.795c-5.332,4.039-9.071,8.792-8.305,10.555c0.763,1.766,1.175,4.966,0.91,7.114   c-0.265,2.149,0.216,8.256,1.065,13.567c0.853,5.314,2.017,15.048,2.587,21.633s-2.93,5.554-7.777-2.287   c-4.851-7.841-10.874-17.277-13.383-20.97c-2.512-3.693-6.731-11.886-9.379-18.205c-2.65-6.317-5.15-12.438-5.554-13.597   c-0.403-1.163-3.255-6.383-6.334-11.603c-3.08-5.217-7.436-11.232-9.676-13.367c-2.244-2.133-4.413-6.321-4.825-9.307   c-0.412-2.987-4.301-9.277-8.647-13.979c-4.347-4.702-12.468-15.016-18.051-22.92c-5.581-7.904-12.886-16.82-16.232-19.813   c-3.347-2.991-11.781,0.089-18.744,6.847c-6.963,6.759-18.45,17.521-25.527,23.916c-7.077,6.395-19.501,14.349-27.608,17.678   c-8.107,3.329-20.767,7.808-28.134,9.957c-7.367,2.147-16.886,4.59-21.153,5.428c-4.269,0.838-10.972,1.687-14.896,1.885   s-3.624-2.852,0.669-6.781c4.295-3.927,11.24-10.715,15.434-15.084c4.194-4.368,9.115-10.203,10.936-12.963   c1.82-2.763,2.519-8.695,1.549-13.185c-0.969-4.488-2.788-12.222-4.044-17.185c-1.256-4.963-0.739-16.943,1.149-26.622   c1.888-9.68,6.484-24.979,10.216-33.999c3.73-9.021,11.739-22.644,17.797-30.276c6.058-7.632,17.172-18.983,24.697-25.225   c7.525-6.242,21.176-14.149,30.336-17.571c9.159-3.422,24.545-7.49,34.192-9.038c9.646-1.549,25.583-2.127,35.417-1.285   c9.834,0.843,25.15,5.034,34.033,9.314c8.884,4.28,22.863,12.283,31.067,17.783c8.2,5.502,19.42,16.711,24.928,24.911   c5.505,8.198,13.417,22.202,17.577,31.118c4.165,8.915,8.132,24.232,8.817,34.036c0.686,9.806,1.633,18.528,2.108,19.382   s6.075,6.061,12.452,11.57c6.372,5.507,17.261,13.973,24.193,18.811c6.934,4.838,18.023,13.125,24.644,18.416   c6.625,5.29,18.015,13.134,25.313,17.431C651.106,590.024,662.807,597.214,669.807,601.707z M518.683,641.298   c1.593-5.387,4.263-11.635,5.934-13.885c1.668-2.252,4.929-5.916,7.242-8.143c2.315-2.228,3.966-1.133,3.67,2.431   c-0.294,3.563,0.962,8.469,2.794,10.897c1.832,2.428,5.124,6.098,7.316,8.154c2.189,2.057,2.518,6.746,0.731,10.425   c-1.789,3.676-1.161,5.988,1.395,5.139c2.552-0.847,8.105-0.44,12.334,0.904c4.234,1.343,4.983,8.129,1.668,15.083   c-3.315,6.953-8.287,16.728-11.041,21.719c-2.754,4.989-6.476,9.621-8.262,10.284c-1.785,0.668-3.183-1.913-3.099-5.732   c0.083-3.82-1.7-6.787-3.958-6.591c-2.265,0.196-5.848,3.797-7.968,8.008c-2.126,4.211-5.542,7.118-7.602,6.461   c-2.06-0.656-2.503-4.813-0.985-9.243c1.519-4.425,3.021-11.58,3.351-15.901c0.325-4.317,0.138-10.706-0.415-14.194   c-0.56-3.492-2.135-8.521-3.509-11.183C516.908,653.269,517.087,646.687,518.683,641.298z M377.106,706.622   c4.727,6.406,12.958,15.826,18.292,20.93c5.334,5.104,16.276,9.011,24.314,8.683c8.038-0.329,19.295,0.489,25.01,1.814   c5.719,1.328,5.41-0.764-0.68-4.646c-6.089-3.883-14.051-8.97-17.687-11.306c-3.635-2.334-7.771-7.207-9.19-10.825   c-1.418-3.624-5.99-14.438-10.158-24.035s-3.334-14.057,1.854-9.909c5.187,4.148,14.816,11.747,21.395,16.892   c6.585,5.142,10.394,2.863,8.469-5.07c-1.924-7.927-5.767-19.844-8.538-26.483c-2.771-6.637-6.353-16.805-7.954-22.595   c-1.603-5.796-0.805-7.04,1.774-2.771c2.579,4.272,8.433,9.797,13.007,12.277c4.574,2.483,11.044,8.187,14.374,12.674   c3.333,4.494,11.937,13.591,19.121,20.222c7.181,6.634,9.301,12.502,4.71,13.043c-4.592,0.536-9.647,3.394-11.231,6.343   c-1.587,2.95,2.024,9.656,8.025,14.901c6.003,5.245,13.953,10.413,17.663,11.487c3.716,1.074,9.339,3.771,12.496,5.994   c3.153,2.225,11.225,4.148,17.934,4.275s6.77,3.079,0.139,6.567c-6.637,3.485-16.852,8.682-22.699,11.551   c-5.85,2.866-9.01,5.986-7.022,6.937c1.987,0.944,7.144,3.278,11.456,5.179c4.313,1.907,11.83,4.943,16.698,6.752   c4.874,1.807,7.604,4.16,6.072,5.226c-1.532,1.071-5.818,2.405-9.523,2.967c-3.71,0.564-9.707-0.219-13.331-1.733   c-3.623-1.521-9.658-2.786-13.411-2.817c-3.751-0.029-9.275-1.392-12.28-3.024c-3.004-1.637-5.513-3.336-5.579-3.779   c-0.063-0.441-2.671-2.448-5.79-4.459c-3.117-2.011-8.676-3.688-12.352-3.733c-3.679-0.04-11.972-3.117-18.43-6.827   c-6.458-3.716-16.608-4.211-22.559-1.101c-5.95,3.111-14.998,7.718-20.106,10.238c-5.107,2.522-5.803,0.956-1.545-3.48   c4.257-4.436,4.383-6.78,0.276-5.214c-4.106,1.57-9.265,3.924-11.466,5.226c-2.202,1.302-5.539,1.936-7.417,1.406   c-1.876-0.53-7.393,0.801-12.256,2.958s-14.633,5.576-21.709,7.596c-7.076,2.022-8.372,1.198-2.879-1.826   s14.523-9.264,20.07-13.861c5.546-4.603,4.616-7.498-2.067-6.435c-6.683,1.06-16.343,2.771-21.469,3.802   c-5.125,1.025-15.111,1.7-22.194,1.486c-7.083-0.207-15.735-0.553-19.226-0.76c-3.491-0.208-8.949-0.617-12.126-0.911   c-3.178-0.29-1.969-1.538,2.688-2.765c4.658-1.233,12.334-4.667,17.061-7.64c4.727-2.967,13.42-8.082,19.32-11.369   c5.898-3.287,7.22-5.303,2.938-4.491c-4.283,0.818-8.216,0.242-8.741-1.278c-0.524-1.516,5.193-4.949,12.705-7.628   c7.512-2.679,16.806-7.686,20.652-11.13c3.846-3.442,8.709-8.711,10.808-11.704c2.099-2.993,6.041-5.001,8.76-4.456   C366.288,694.523,372.38,700.21,377.106,706.622z" style="fill: #BF0A30; fill-opacity: 1;"></path><path d="M362.418,528.431c0.388-0.305,4.233-3.938,8.544-8.071c4.309-4.132,11.912-10.086,16.894-13.23   c4.982-3.143,12.068-2.65,15.747,1.095s10.016,10.457,14.083,14.916c4.067,4.458,9.379,10.731,11.802,13.942   c2.422,3.21,6.694,8.058,9.491,10.773c2.794,2.716,5.686,8.191,6.424,12.166c0.737,3.975,2.915,9.537,4.839,12.36   c1.924,2.823,6.021,6.303,9.097,7.734c3.082,1.432,9.321-1.607,13.873-6.752c4.551-5.145,11.13-14.289,14.621-20.321   c3.497-6.031,7.559-16.609,9.027-23.508c1.473-6.898,1.371-19.341-0.23-27.648c-1.596-8.308-6.607-21.012-11.142-28.231   c-4.528-7.217-14.348-16.331-21.82-20.25c-7.472-3.92-20.175-8.984-28.229-11.254c-8.055-2.268-21.253-2.309-29.329-0.089   c-8.077,2.219-20.358,7.707-27.29,12.196c-6.933,4.488-16.315,13.816-20.849,20.731c-4.533,6.913-9.706,19.193-11.498,27.287   c-1.792,8.093-1.936,20.812-0.321,28.262c1.613,7.451,5.774,10.151,9.247,5.999C358.871,532.385,362.029,528.738,362.418,528.431z" style="fill: #FFD700; fill-opacity: 1;"></path><path d="M470.394,939.023c8.63,2.426,8.606,6.101-0.058,8.163c-8.662,2.068-23.353,3.912-32.648,4.103   c-9.292,0.187-24.509,0.313-33.814,0.276c-9.306-0.035-24.014-1.878-32.684-4.097c-8.669-2.218-8.666-5.81,0.009-7.979   c8.673-2.172,23.379-4.137,32.682-4.373c9.303-0.23,24.541-0.44,33.865-0.467C447.066,934.628,461.758,936.595,470.394,939.023z" style="fill: #002868; fill-opacity: 1;"></path></svg></g> <g transform="rotate(0 287.5 443.7045806288107)"><svg y="432.40958055251673" viewBox="1.7699999809265137 20.40999984741211 344.1700134277344 22.59000015258789" x="115.41499328613281" height="22.59000015258789" width="344.1700134277344" xmlns="http://www.w3.org/2000/svg" style="overflow: visible;"><g fill="#002868" fill-opacity="1" style=""><path d="M9.85 42.99L9.85 42.99Q5.81 42.99 3.79 40.72Q1.77 38.45 1.77 34.28L1.77 34.28L1.77 29.12Q1.77 24.94 3.78 22.69Q5.79 20.43 9.81 20.43L9.81 20.43Q11.11 20.43 12.17 20.67Q13.24 20.91 14.07 21.28Q14.91 21.66 15.49 22.06L15.49 22.06L15.73 24.69Q14.72 23.97 13.37 23.44Q12.01 22.90 10.19 22.90L10.19 22.90Q7.45 22.90 6.05 24.53Q4.65 26.15 4.65 29.15L4.65 29.15L4.65 34.18Q4.65 37.16 6.07 38.80Q7.48 40.45 10.29 40.45L10.29 40.45Q12.10 40.45 13.49 39.92Q14.87 39.39 15.90 38.63L15.90 38.63L15.66 41.32Q15.08 41.73 14.23 42.12Q13.37 42.51 12.28 42.75Q11.18 42.99 9.85 42.99ZM22.69 20.82L22.69 42.59L19.87 42.59L19.87 20.82L22.69 20.82ZM21.38 42.59L21.38 40.19L32.87 40.19L32.87 42.59L21.38 42.59ZM44.08 43.00L44.08 43.00Q39.95 43.00 37.81 40.73Q35.66 38.45 35.66 34.21L35.66 34.21L35.66 29.19Q35.66 24.96 37.81 22.69Q39.95 20.41 44.08 20.41L44.08 20.41Q48.20 20.41 50.35 22.69Q52.49 24.96 52.49 29.19L52.49 29.19L52.49 34.21Q52.49 38.45 50.35 40.73Q48.20 43.00 44.08 43.00ZM44.08 40.64L44.08 40.64Q46.84 40.64 48.23 38.99Q49.63 37.35 49.63 34.33L49.63 34.33L49.63 29.07Q49.63 26.05 48.23 24.42Q46.84 22.78 44.08 22.78L44.08 22.78Q41.33 22.78 39.94 24.42Q38.54 26.05 38.54 29.07L38.54 29.07L38.54 34.33Q38.54 37.35 39.94 38.99Q41.33 40.64 44.08 40.64ZM64.68 43.00L64.68 43.00Q60.59 43.00 58.64 40.90Q56.69 38.80 56.69 34.77L56.69 34.77L56.69 20.82L59.51 20.82L59.51 34.84Q59.51 37.64 60.74 39.11Q61.97 40.58 64.68 40.58L64.68 40.58Q67.40 40.58 68.62 39.11Q69.84 37.64 69.84 34.84L69.84 34.84L69.84 20.82L72.67 20.82L72.67 34.77Q72.67 38.80 70.72 40.90Q68.78 43.00 64.68 43.00ZM84.93 42.59L79.55 42.59L79.55 40.21L84.83 40.21Q87.73 40.21 89.19 38.63Q90.64 37.06 90.64 34.13L90.64 34.13L90.64 29.27Q90.64 26.32 89.19 24.76Q87.73 23.19 84.83 23.19L84.83 23.19L79.53 23.19L79.53 20.82L84.93 20.82Q89.16 20.82 91.32 22.99Q93.49 25.17 93.49 29.25L93.49 29.25L93.49 34.14Q93.49 38.22 91.32 40.41Q89.16 42.59 84.93 42.59L84.93 42.59ZM80.44 42.59L77.64 42.59L77.64 20.82L80.44 20.82L80.44 42.59ZM111.16 42.99L111.16 42.99Q107.12 42.99 105.10 40.72Q103.08 38.45 103.08 34.28L103.08 34.28L103.08 29.12Q103.08 24.94 105.09 22.69Q107.10 20.43 111.12 20.43L111.12 20.43Q112.42 20.43 113.48 20.67Q114.55 20.91 115.38 21.28Q116.22 21.66 116.80 22.06L116.80 22.06L117.03 24.69Q116.03 23.97 114.67 23.44Q113.32 22.90 111.50 22.90L111.50 22.90Q108.75 22.90 107.36 24.53Q105.96 26.15 105.96 29.15L105.96 29.15L105.96 34.18Q105.96 37.16 107.37 38.80Q108.79 40.45 111.60 40.45L111.60 40.45Q113.40 40.45 114.79 39.92Q116.18 39.39 117.20 38.63L117.20 38.63L116.97 41.32Q116.39 41.73 115.53 42.12Q114.68 42.51 113.58 42.75Q112.48 42.99 111.16 42.99ZM124.04 20.82L124.04 42.59L121.21 42.59L121.21 20.82L124.04 20.82ZM137.10 42.59L134.28 42.59L134.28 21.28L137.10 21.28L137.10 42.59ZM143.63 23.19L127.75 23.19L127.75 20.82L143.63 20.82L143.63 23.19ZM155.30 36.05L152.86 36.05L145.38 20.82L148.37 20.82L152.37 29.15L153.97 32.76L154.19 32.76L155.80 29.15L159.78 20.82L162.78 20.82L155.30 36.05ZM155.47 42.59L152.69 42.59L152.69 33.41L155.47 33.41L155.47 42.59ZM178.76 43.00L178.76 43.00Q176.29 43.00 174.62 42.01Q172.95 41.01 172.11 39.10Q171.27 37.19 171.27 34.48L171.27 34.48L171.27 29.34Q171.27 25.05 173.47 22.74Q175.68 20.43 179.95 20.43L179.95 20.43Q181.49 20.43 182.74 20.68Q183.99 20.92 184.96 21.32Q185.94 21.72 186.63 22.17L186.63 22.17L186.89 24.72Q185.71 23.97 184.12 23.41Q182.53 22.85 180.43 22.85L180.43 22.85Q177.26 22.85 175.70 24.53Q174.15 26.22 174.15 29.39L174.15 29.39L174.15 34.47Q174.15 37.40 175.52 38.99Q176.89 40.58 179.63 40.58L179.63 40.58Q181.03 40.58 182.03 40.11Q183.02 39.63 183.66 38.85Q184.30 38.06 184.59 37.13L184.59 37.13L184.59 31.76L185.05 32.76L179.92 32.76L179.92 30.41L187.35 30.41L187.35 39.02L184.57 39.00Q184.30 40.06 183.64 40.98Q182.97 41.90 181.78 42.45Q180.59 43.00 178.76 43.00ZM184.59 42.59L184.71 38.10L187.35 38.10L187.35 42.59L184.59 42.59ZM194.97 42.59L192.17 42.59L192.17 20.82L194.97 20.82L194.97 42.59ZM205.75 42.59L193.01 42.59L193.01 40.23L205.75 40.23L205.75 42.59ZM205.39 32.66L193.77 32.66L193.77 30.31L205.39 30.31L205.39 32.66ZM205.65 23.19L192.99 23.19L192.99 20.82L205.65 20.82L205.65 23.19ZM217.61 43.00L217.61 43.00Q213.49 43.00 211.34 40.73Q209.19 38.45 209.19 34.21L209.19 34.21L209.19 29.19Q209.19 24.96 211.34 22.69Q213.49 20.41 217.61 20.41L217.61 20.41Q221.73 20.41 223.88 22.69Q226.03 24.96 226.03 29.19L226.03 29.19L226.03 34.21Q226.03 38.45 223.88 40.73Q221.73 43.00 217.61 43.00ZM217.61 40.64L217.61 40.64Q220.37 40.64 221.77 38.99Q223.16 37.35 223.16 34.33L223.16 34.33L223.16 29.07Q223.16 26.05 221.77 24.42Q220.37 22.78 217.61 22.78L217.61 22.78Q214.87 22.78 213.47 24.42Q212.07 26.05 212.07 29.07L212.07 29.07L212.07 34.33Q212.07 37.35 213.47 38.99Q214.87 40.64 217.61 40.64ZM236.45 42.99L236.45 42.99Q234.89 42.99 233.58 42.73Q232.28 42.48 231.26 42.10Q230.23 41.73 229.55 41.35L229.55 41.35L229.26 38.54Q230.57 39.32 232.36 39.91Q234.14 40.50 236.23 40.50L236.23 40.50Q238.75 40.50 239.96 39.60Q241.17 38.71 241.17 36.92L241.17 36.92L241.17 36.65Q241.17 35.47 240.70 34.72Q240.22 33.97 239.09 33.46Q237.95 32.95 236.01 32.51L236.01 32.51Q233.56 31.93 232.08 31.14Q230.61 30.34 229.95 29.15Q229.30 27.96 229.30 26.19L229.30 26.19L229.30 26.03Q229.30 23.36 231.05 21.90Q232.81 20.45 236.37 20.45L236.37 20.45Q238.70 20.45 240.35 20.92Q241.99 21.40 243.03 21.98L243.03 21.98L243.29 24.57Q242.08 23.85 240.47 23.35Q238.86 22.85 236.78 22.85L236.78 22.85Q235.12 22.85 234.10 23.24Q233.08 23.63 232.62 24.36Q232.16 25.10 232.16 26.14L232.16 26.14L232.16 26.20Q232.16 27.26 232.61 28.01Q233.06 28.76 234.20 29.31Q235.33 29.85 237.42 30.36L237.42 30.36Q239.83 30.92 241.27 31.66Q242.72 32.39 243.38 33.56Q244.03 34.74 244.03 36.63L244.03 36.63L244.03 36.99Q244.03 39.94 242.13 41.46Q240.24 42.99 236.45 42.99ZM256.23 35.35L249.98 35.35L249.98 33.00L256.17 33.00Q258.40 33.00 259.40 31.89Q260.41 30.77 260.41 28.81L260.41 28.81L260.41 27.33Q260.41 25.34 259.41 24.25Q258.41 23.15 256.20 23.15L256.20 23.15L249.96 23.15L249.96 20.82L256.25 20.82Q259.90 20.82 261.56 22.53Q263.22 24.25 263.22 27.24L263.22 27.24L263.22 28.88Q263.22 31.91 261.54 33.63Q259.86 35.35 256.23 35.35L256.23 35.35ZM250.94 42.59L248.14 42.59L248.14 20.82L250.92 20.82L250.92 33.70L250.94 34.96L250.94 42.59ZM268.36 42.59L265.50 42.59L272.32 20.82L276.78 20.82L283.61 42.59L280.75 42.59L274.77 22.73L274.35 22.73L268.36 42.59ZM279.51 36.17L269.59 36.17L269.59 33.82L279.51 33.82L279.51 36.17ZM294.91 42.59L292.08 42.59L292.08 21.28L294.91 21.28L294.91 42.59ZM301.44 23.19L285.56 23.19L285.56 20.82L301.44 20.82L301.44 23.19ZM307.98 20.82L307.98 42.59L305.15 42.59L305.15 20.82L307.98 20.82ZM314.28 42.59L311.42 42.59L318.24 20.82L322.70 20.82L329.53 42.59L326.67 42.59L320.69 22.73L320.26 22.73L314.28 42.59ZM325.43 36.17L315.51 36.17L315.51 33.82L325.43 33.82L325.43 36.17ZM335.77 20.82L335.77 42.59L332.94 42.59L332.94 20.82L335.77 20.82ZM334.46 42.59L334.46 40.19L345.94 40.19L345.94 42.59L334.46 42.59Z" transform="translate(0, 0)"></path></g></svg></g></svg>
                </g>
            </svg>
        